<?xml version="1.0" encoding="utf-8"?>
<svg version="1.0" xmlns="http://www.w3.org/2000/svg" width="512.000000pt" height="512.000000pt" viewBox="0 0 512.000000 512.000000" preserveAspectRatio="xMidYMid meet">
  <g transform="translate(0.000000,512.000000) scale(0.100000,-0.100000)" fill="#000000" stroke="none">
    <path d="M2319 5110 c-161 -19 -331 -71 -483 -147 -404 -203 -682 -561 -788 -1012 -15 -65 -21 -136 -25 -293 l-5 -208 -37 -27 c-48 -37 -66 -58 -99 -118 -26 -48 -27 -56 -27 -195 0 -134 2 -149 25 -194 55 -113 145 -166 291 -174 l96 -5 18 -76 c35 -154 104 -308 206 -462 83 -125 264 -305 382 -379 l87 -55 -3 -135 c-3 -145 -11 -174 -66 -233 -37 -41 -64 -53 -219 -98 -170 -50 -201 -76 -171 -143 23 -51 50 -51 219 0 180 53 219 73 288 149 69 75 93 142 100 273 4 90 7 102 21 97 124 -51 244 -75 375 -75 125 0 262 25 357 64 15 6 17 -5 21 -96 3 -90 7 -111 35 -170 35 -74 100 -146 161 -177 22 -11 221 -74 443 -141 222 -66 433 -134 468 -152 130 -63 250 -219 286 -369 9 -38 15 -112 15 -184 0 -135 -12 -168 -72 -205 -31 -19 -51 -20 -295 -20 l-263 0 0 260 c0 247 -1 261 -20 280 -12 12 -33 20 -54 20 -47 0 -76 -37 -76 -96 l0 -44 -972 2 -973 3 -5 54 c-4 36 -12 58 -25 67 -28 21 -79 17 -101 -7 -17 -19 -19 -42 -22 -280 l-3 -259 -300 0 c-334 0 -350 3 -389 65 -17 28 -20 49 -20 167 0 213 39 317 165 443 82 83 153 122 285 160 102 29 140 56 140 101 0 29 -41 74 -68 74 -33 0 -264 -79 -311 -107 -159 -92 -272 -230 -332 -403 -18 -54 -23 -94 -27 -233 -3 -114 0 -182 8 -211 17 -63 76 -134 140 -170 l55 -31 493 -3 492 -3 25 25 c32 32 32 70 0 101 -22 23 -32 25 -115 25 l-90 0 0 135 0 135 975 0 975 0 0 -135 0 -135 -749 0 c-717 0 -750 -1 -772 -19 -32 -26 -32 -86 0 -112 23 -19 58 -19 1130 -17 1102 3 1106 3 1151 24 58 27 117 87 144 144 17 37 21 69 24 182 5 176 -12 269 -74 397 -38 79 -60 108 -132 181 -126 126 -169 145 -637 284 -214 64 -407 123 -427 132 -20 9 -51 30 -68 47 -57 55 -64 80 -68 223 l-4 131 84 57 c45 31 94 65 108 76 22 18 33 19 93 12 l68 -9 302 -300 c166 -166 316 -308 332 -316 111 -55 255 -5 306 107 23 50 24 134 4 184 -11 24 -119 140 -320 342 l-303 305 -17 154 -17 155 28 112 28 112 91 4 c139 7 220 52 283 158 25 42 27 54 30 187 3 112 0 153 -13 192 -17 52 -76 128 -117 150 -25 13 -25 13 -31 209 -8 280 -45 444 -146 644 -51 103 -76 121 -128 96 -50 -24 -51 -56 -8 -150 92 -202 124 -339 132 -575 l6 -173 -50 0 -49 0 -27 98 c-15 53 -52 147 -81 208 -199 407 -593 671 -1044 700 l-102 7 42 20 c127 57 306 112 465 142 107 20 300 38 329 31 13 -4 69 -51 125 -106 81 -81 106 -100 130 -100 40 0 69 32 69 76 0 32 -10 46 -92 128 -148 146 -281 236 -470 318 -225 97 -501 137 -749 108z m426 -164 c90 -18 217 -59 291 -93 l58 -26 -106 -18 c-217 -37 -391 -91 -585 -184 -200 -96 -623 -352 -724 -438 -191 -165 -341 -406 -396 -634 l-17 -73 -48 0 -48 0 0 143 c0 170 19 296 65 434 162 485 579 832 1086 903 86 12 337 4 424 -14z m18 -640 c184 -47 352 -142 490 -275 170 -164 271 -347 317 -570 17 -84 20 -137 20 -353 0 -188 -4 -275 -16 -339 l-16 -86 -56 23 c-31 13 -78 24 -104 24 -56 0 -155 -34 -235 -81 -155 -91 -293 -293 -301 -441 -3 -50 1 -82 13 -115 21 -55 83 -126 125 -143 17 -7 30 -15 30 -19 0 -3 -28 -22 -63 -43 -188 -110 -267 -133 -457 -133 -172 0 -229 13 -370 82 -273 135 -485 340 -611 593 -96 192 -128 336 -136 610 -9 317 16 475 102 658 61 128 127 223 220 317 166 167 384 277 621 315 105 16 317 5 427 -24z m-1523 -1051 l0 -75 -50 0 c-58 0 -90 -24 -90 -66 0 -52 41 -84 111 -84 26 0 27 -2 31 -62 2 -35 1 -67 -3 -72 -14 -16 -137 -1 -166 20 -54 41 -68 70 -72 155 -5 115 5 164 41 204 34 40 70 53 146 54 l52 1 0 -75z m2657 55 c69 -31 83 -64 83 -201 0 -104 -2 -120 -23 -150 -32 -48 -79 -69 -154 -69 l-63 0 0 69 0 68 52 5 c40 4 57 11 75 32 28 33 29 56 3 89 -17 21 -31 27 -73 29 l-52 3 -3 73 -3 72 58 0 c35 0 74 -8 100 -20z m-420 -761 c38 -36 40 -44 58 -203 l17 -148 -81 -82 -81 -81 -148 16 c-157 17 -178 24 -211 65 -63 80 26 274 174 379 120 86 216 105 272 54z m246 -577 l87 -88 -55 -54 -55 -54 -85 84 c-47 47 -85 89 -85 94 0 11 90 106 100 106 3 0 45 -39 93 -88z m465 -507 c-4 -49 -43 -81 -85 -71 -17 5 -79 59 -163 141 l-135 134 55 56 55 56 138 -140 c133 -134 138 -140 135 -176z" style="fill: rgb(185, 165, 106);"/>
    <path d="M1665 3125 c-53 -52 -23 -105 86 -155 135 -62 304 -48 411 33 35 26 44 40 46 69 2 29 -2 40 -24 57 -36 28 -54 27 -122 -11 -50 -29 -66 -33 -133 -33 -66 0 -84 4 -139 33 -75 38 -93 40 -125 7z" style="fill: rgb(185, 165, 106);"/>
    <path d="M2808 3136 c-29 -21 -38 -58 -23 -93 10 -24 31 -40 91 -70 76 -37 81 -38 183 -38 98 0 111 2 171 31 94 45 114 64 114 109 0 27 -6 43 -23 56 -32 26 -52 24 -124 -13 -54 -29 -72 -33 -137 -33 -66 0 -82 4 -134 33 -64 34 -91 39 -118 18z" style="fill: rgb(185, 165, 106);"/>
    <path d="M2236 2359 c-22 -17 -26 -28 -24 -57 2 -29 11 -43 46 -69 91 -69 245 -92 364 -52 123 40 179 100 147 157 -26 48 -60 51 -137 11 -59 -30 -76 -34 -142 -34 -66 0 -82 4 -132 33 -68 38 -86 39 -122 11z" style="fill: rgb(185, 165, 106);"/>
    <path d="M4468 4570 c-50 -27 -71 -61 -102 -161 -15 -47 -34 -93 -44 -101 -9 -9 -57 -28 -107 -43 -70 -21 -97 -35 -122 -61 -58 -62 -66 -147 -20 -214 33 -50 65 -69 157 -96 47 -13 90 -30 97 -37 7 -7 24 -50 37 -97 27 -92 46 -124 96 -157 43 -30 88 -37 140 -23 68 18 104 62 136 166 15 49 33 96 41 106 8 9 53 28 101 43 103 32 136 53 162 105 36 71 21 158 -36 212 -27 24 -105 56 -182 73 -41 9 -62 40 -86 133 -20 79 -61 137 -112 158 -46 19 -112 17 -156 -6z m137 -233 c42 -132 70 -160 202 -202 79 -26 99 -36 101 -53 3 -18 -8 -24 -85 -47 -150 -46 -176 -71 -223 -224 -21 -68 -31 -86 -46 -86 -14 0 -24 14 -37 55 -41 122 -50 142 -74 171 -32 37 -79 61 -163 84 -122 33 -117 59 18 99 132 38 168 78 213 234 18 63 24 73 42 70 16 -2 26 -23 52 -101z" style="fill: rgb(185, 165, 106);"/>
    <path d="M522 2368 c-69 -15 -106 -60 -141 -176 -34 -110 -33 -108 -146 -142 -39 -11 -85 -29 -103 -40 -62 -38 -90 -139 -58 -213 24 -56 66 -85 172 -120 l99 -32 32 -99 c45 -137 94 -186 187 -186 103 0 146 39 187 171 16 53 38 103 47 111 9 9 47 23 83 33 37 9 84 27 105 39 101 56 120 186 41 272 -25 27 -53 42 -132 67 -112 36 -111 35 -146 155 -38 132 -113 184 -227 160z m97 -246 c41 -131 71 -161 207 -205 80 -26 99 -36 99 -51 0 -16 -17 -25 -88 -47 -145 -45 -175 -74 -218 -212 -27 -87 -33 -98 -52 -95 -18 2 -27 20 -50 97 -39 124 -78 166 -187 199 -109 33 -122 40 -118 60 2 12 31 26 93 47 50 17 100 36 112 43 40 22 75 80 99 163 40 139 60 140 103 1z" style="fill: rgb(185, 165, 106);"/>
  </g>
</svg>