<?xml version="1.0" encoding="utf-8"?>
<svg version="1.0" xmlns="http://www.w3.org/2000/svg" width="512.000000pt" height="512.000000pt" viewBox="0 0 512.000000 512.000000" preserveAspectRatio="xMidYMid meet">
  <g transform="translate(0.000000,512.000000) scale(0.100000,-0.100000)" fill="#000000" stroke="none">
    <path d="M706 4949 c-63 -15 -153 -68 -197 -116 -52 -56 -97 -152 -104 -223 -5 -43 11 -161 74 -537 l81 -482 0 -1612 c0 -1236 3 -1621 12 -1653 17 -58 99 -138 158 -155 31 -8 107 -11 250 -9 176 3 210 6 242 22 37 18 39 18 80 0 41 -18 110 -19 1706 -22 l1663 -2 24 24 25 25 0 751 0 751 -25 24 c-13 14 -31 25 -40 25 -13 0 -15 28 -15 215 0 216 0 216 -25 240 -20 21 -34 25 -80 25 l-55 0 0 375 0 376 -25 24 c-20 21 -34 25 -80 25 l-55 0 0 334 0 334 -182 221 c-114 139 -190 224 -205 227 -52 14 -69 -1 -162 -149 l-91 -142 0 -412 0 -413 -54 0 c-38 0 -61 -6 -77 -19 -23 -19 -24 -24 -29 -212 l-5 -193 -44 60 c-184 245 -500 439 -814 499 -440 84 -892 -55 -1214 -372 l-83 -83 0 436 0 435 81 482 c89 534 90 546 40 654 -41 87 -100 146 -189 191 l-76 37 -235 2 c-130 1 -253 -3 -275 -8z m488 -161 c59 -17 138 -99 155 -160 12 -43 8 -75 -59 -480 -39 -238 -74 -441 -76 -450 -5 -17 -26 -18 -254 -18 -228 0 -249 1 -254 18 -2 9 -37 212 -76 450 -67 405 -71 437 -59 480 16 57 96 142 149 159 50 16 421 16 474 1z m2849 -993 l117 -143 0 -306 0 -306 -160 0 -160 0 0 387 0 387 38 63 c20 34 39 63 42 62 3 0 58 -65 123 -144z m-2843 -755 l0 -480 -240 0 -240 0 0 480 0 480 240 0 240 0 0 -480z m1438 -24 c367 -80 669 -313 836 -643 138 -275 163 -616 66 -905 -33 -98 -104 -243 -151 -308 l-29 -40 -106 0 -107 0 40 43 c80 87 160 228 201 357 179 551 -134 1148 -688 1313 -369 111 -758 14 -1029 -255 -89 -89 -146 -167 -199 -273 -148 -300 -148 -630 0 -930 41 -83 110 -186 147 -219 11 -11 21 -23 21 -28 0 -4 -45 -8 -100 -8 l-100 0 -31 43 c-48 65 -136 253 -163 347 -119 418 -2 867 308 1176 179 178 404 296 636 334 41 6 82 13 90 15 37 9 292 -5 358 -19z m1682 -456 l0 -320 -310 0 -310 0 -10 26 c-6 14 -10 153 -10 320 l0 294 320 0 320 0 0 -320z m-1705 132 c325 -89 554 -320 641 -648 13 -51 18 -105 18 -204 0 -99 -5 -153 -18 -204 -51 -191 -150 -352 -289 -467 l-58 -49 -507 0 -507 0 -56 44 c-100 78 -196 208 -249 335 -51 125 -64 195 -64 341 0 191 39 327 140 482 135 209 348 343 624 392 56 10 257 -3 325 -22z m-1482 -359 c-117 -305 -122 -640 -13 -948 18 -49 43 -111 56 -137 14 -27 24 -65 24 -88 l0 -40 -55 0 c-46 0 -60 -4 -81 -25 l-25 -25 3 -303 3 -303 36 -72 35 -72 -173 0 c-171 0 -174 0 -198 25 l-25 24 0 1016 0 1015 220 0 219 0 -26 -67z m3347 -413 l0 -160 -359 0 -358 0 -6 133 c-4 72 -10 144 -13 160 l-6 27 371 0 371 0 0 -160z m80 -960 l0 -640 -438 0 -438 0 35 72 36 72 3 303 3 303 -25 25 c-22 22 -33 25 -101 25 -41 0 -75 1 -75 3 0 1 22 46 50 99 42 83 104 257 124 351 l6 27 410 0 410 0 0 -640z m-2640 -135 c0 -131 1 -137 25 -160 l24 -25 431 0 431 0 24 25 c24 23 25 29 25 160 l0 135 360 0 360 0 0 -216 c0 -141 -4 -231 -12 -258 -16 -55 -99 -138 -154 -154 -60 -17 -2008 -17 -2068 0 -55 16 -138 99 -154 154 -8 27 -12 117 -12 258 l0 216 360 0 360 0 0 -135z m800 55 l0 -80 -320 0 -320 0 0 80 0 80 320 0 320 0 0 -80z" style="fill: rgb(185, 165, 106);"/>
  </g>
</svg>